<?xml version="1.0" encoding="UTF-8"?>
<svg id="Capa_1" xmlns="http://www.w3.org/2000/svg" version="1.1" viewBox="0 0 209 100">
  <!-- Generator: Adobe Illustrator 30.0.0, SVG Export Plug-In . SVG Version: 2.1.1 Build 123)  -->
  <defs>
    <style>
      .st0 {
        fill: #090a07;
      }

      .st1 {
        fill: #ce1184;
      }
    </style>
  </defs>
  <path class="st0" d="M202.73,41.61c-.48,1.29-2.41,5.28-6.6,6.84-2.25.86-4.51.97-6.87.97h-9.23v12.39h-12.02V23.79h21.62c3.7,0,7.14.27,10.09,2.86,3.81,3.29,3.92,7.86,3.92,9.53,0,.75-.05,3.17-.91,5.44M191.14,33.91c-1.18-2.15-3.7-2.15-4.34-2.15h-6.76v9.69h6.81c.16,0,1.34-.05,2.14-.32,1.07-.38,2.74-1.56,2.74-4.58,0-.43,0-1.56-.59-2.64"/>
  <path class="st0" d="M151.29,23.79v23.75c0,1.13,0,1.99-.38,2.96-1.07,2.86-4.08,3.02-4.88,3.02-.86,0-3.86-.16-4.83-3.07-.43-1.19-.37-2.53-.37-2.91v-21.98h6.31l-12.45-11.66-11.76,11.66h5.88v20.79c0,3.99.27,5.55.97,7.43,1.77,4.69,5.63,6.57,7.24,7.27,3.76,1.67,7.51,1.78,8.91,1.78,6.76,0,13.63-2.64,16.25-9.53.86-2.26,1.18-4.31,1.18-6.73v-22.78h-12.07Z"/>
  <rect class="st0" x="16.91" y="69.94" width="186.67" height="2.47"/>
  <path class="st1" d="M5.36,45.38c0-2.73.28-5.17.84-7.32.56-2.14,1.46-3.97,2.69-5.46,1.23-1.5,2.8-2.64,4.7-3.45,1.9-.8,4.21-1.2,6.93-1.2,2.85.09,5.4.74,7.65,1.95.95.52,1.89,1.19,2.82,2.02.93.82,1.75,1.85,2.46,3.09.71,1.23,1.3,2.7,1.75,4.39.46,1.69.68,3.67.68,5.92s-.21,4.23-.61,5.92c-.41,1.69-.95,3.14-1.62,4.36-.67,1.21-1.43,2.22-2.27,3.03-.84.8-1.72,1.46-2.62,1.99-2.07,1.17-4.45,1.78-7.13,1.82-1.34-.09-2.63-.37-3.89-.84-1.08-.43-2.18-1.13-3.31-2.08-1.12-.96-2.05-2.34-2.79-4.16l1.42,1.89v15.48h-7.71v-27.32ZM20.52,35.62c-1.68,0-3.02.28-4.02.85-.99.56-1.74,1.31-2.24,2.24-.5.93-.82,1.98-.97,3.12-.15,1.15-.23,2.31-.23,3.48,0,.95.09,1.99.26,3.12.17,1.13.53,2.18,1.07,3.16.54.97,1.3,1.79,2.27,2.44.97.65,2.26.98,3.85.98s2.88-.33,3.85-.98c.97-.65,1.72-1.46,2.24-2.44.52-.98.86-2.03,1.04-3.16.17-1.13.26-2.17.26-3.12s-.09-1.99-.26-3.12c-.17-1.13-.52-2.18-1.04-3.16-.52-.98-1.27-1.79-2.24-2.44-.97-.65-2.26-.98-3.85-.98"/>
  <path class="st1" d="M39.89,21.44c0-.95.01-1.67.03-2.15.02-.48.15-.82.39-1.04.24-.22.63-.33,1.17-.36.54-.02,1.33-.03,2.36-.03s1.83.01,2.36.03c.54.02.93.14,1.17.36.24.22.37.57.39,1.04.02.47.03,1.19.03,2.15s-.01,1.67-.03,2.15c-.02.48-.15.82-.39,1.04-.24.22-.63.34-1.17.36-.54.02-1.33.03-2.36.03s-1.83-.01-2.36-.03c-.54-.02-.93-.14-1.17-.36-.24-.22-.37-.56-.39-1.04-.02-.48-.03-1.19-.03-2.15M47.8,61.78h-7.91V28.79h7.91v32.98Z"/>
  <path class="st1" d="M66.52,27.95c.13,0,.59.02,1.39.07.8.04,1.74.23,2.82.55,1.08.32,2.22.84,3.43,1.53,1.21.69,2.33,1.69,3.37,2.99,1.04,1.3,1.89,2.94,2.56,4.91.67,1.97,1.01,4.41,1.01,7.32v16.46h-7.91v-16.46c0-.95-.09-1.93-.26-2.93-.17-1-.5-1.91-.97-2.73-.47-.82-1.15-1.5-2.01-2.05-.86-.54-2.01-.81-3.43-.81s-2.57.27-3.43.81c-.87.54-1.54,1.23-2.01,2.05-.48.82-.8,1.73-.97,2.73-.17,1-.26,1.97-.26,2.93v16.46h-7.91v-16.46c0-2.9.34-5.35,1.01-7.32.67-1.97,1.52-3.61,2.56-4.91,1.04-1.3,2.16-2.3,3.37-2.99,1.21-.69,2.35-1.21,3.44-1.53,1.08-.32,2.01-.51,2.79-.55.78-.04,1.25-.07,1.43-.07"/>
  <polygon class="st1" points="93.22 61.78 85.32 61.78 85.32 17.87 93.22 17.87 93.22 41.93 102.88 28.79 111.62 28.79 101.64 42.52 115.58 61.78 106.83 61.78 97.17 48.5 93.22 53.64 93.22 61.78"/>
  <path class="st0" d="M50.56,80.34h-2.18c-.06-.19-.13-.37-.22-.55-.09-.18-.21-.34-.35-.49-.15-.14-.32-.25-.54-.34-.21-.08-.46-.12-.75-.12-.43,0-.78.09-1.04.26-.26.18-.47.4-.61.66-.14.26-.24.55-.28.85-.05.31-.07.59-.07.85s.02.54.07.84c.05.31.14.59.28.86.14.26.34.48.61.66.26.18.61.26,1.04.26.57,0,1-.15,1.29-.46.29-.31.48-.66.59-1.05h2.16c-.07.47-.19.88-.34,1.23-.16.34-.34.64-.54.9-.2.25-.41.46-.65.62-.24.17-.47.3-.7.41-.55.25-1.15.37-1.81.37-.78,0-1.48-.17-2.09-.49-.26-.14-.51-.32-.76-.54-.25-.22-.47-.49-.67-.82-.19-.33-.35-.72-.47-1.18-.12-.46-.18-.99-.18-1.6s.06-1.15.18-1.6c.12-.46.28-.86.47-1.19.2-.34.42-.61.67-.84.25-.22.5-.41.77-.54.61-.33,1.31-.51,2.09-.53.64.03,1.24.16,1.79.41.23.11.47.24.7.41.23.17.45.39.65.64.2.26.38.56.54.91.16.35.27.75.34,1.21"/>
  <path class="st0" d="M58.59,81.47c0-.61.06-1.15.18-1.6.12-.46.27-.86.46-1.19.19-.34.41-.61.67-.84.25-.22.51-.4.76-.54.61-.33,1.31-.51,2.09-.53.77.03,1.46.2,2.07.53.26.14.51.32.76.54.25.22.47.5.67.84.19.33.35.73.48,1.19.12.46.18.99.18,1.6s-.06,1.14-.18,1.6c-.12.46-.28.85-.48,1.18-.19.33-.42.6-.67.82-.25.22-.51.4-.76.54-.61.32-1.3.48-2.07.49-.78,0-1.48-.17-2.09-.49-.25-.14-.51-.32-.76-.54-.25-.22-.47-.49-.67-.82-.19-.33-.35-.72-.46-1.18-.12-.46-.18-.99-.18-1.6M62.75,78.84c-.43,0-.78.09-1.04.26-.26.18-.47.4-.61.66-.14.26-.23.55-.28.85-.05.31-.07.59-.07.85s.02.54.07.84c.05.31.14.59.28.86.14.26.34.48.61.66.26.18.61.26,1.04.26s.78-.09,1.05-.26c.26-.18.46-.4.61-.66.14-.27.23-.55.28-.86.05-.3.07-.59.07-.84s-.02-.54-.07-.85c-.05-.31-.14-.59-.28-.85-.14-.27-.34-.49-.61-.66-.26-.18-.61-.26-1.05-.26"/>
  <path class="st0" d="M78.83,80.52c.16,0,.39,0,.68.01.29,0,.59.03.92.07.33.04.66.11.99.21.33.1.63.24.9.43.27.19.49.43.66.72.17.29.26.66.26,1.09,0,.68-.15,1.23-.45,1.63-.3.4-.66.72-1.1.93-.43.21-.9.35-1.4.41-.5.06-.94.09-1.32.09-.07,0-.22,0-.46-.01-.24,0-.51-.04-.82-.1-.31-.06-.64-.15-.98-.28-.35-.13-.66-.31-.95-.55-.29-.24-.52-.56-.71-.94-.19-.38-.28-.85-.28-1.4h2.14c0,.11.02.23.05.38.04.15.12.29.25.43.13.14.32.26.58.36.26.1.61.15,1.05.17.55.01.97-.01,1.27-.07.3-.06.52-.14.66-.24.14-.1.23-.2.25-.31.03-.11.04-.2.04-.3,0-.1-.02-.21-.05-.32-.03-.11-.13-.2-.27-.29-.15-.09-.37-.16-.68-.22-.31-.06-.74-.09-1.29-.11-.42-.01-.84-.07-1.26-.18-.42-.11-.8-.27-1.14-.49-.34-.22-.61-.49-.82-.82-.21-.33-.32-.72-.32-1.16,0-.49.11-.92.32-1.3.21-.37.49-.67.83-.91.35-.24.74-.41,1.19-.53.44-.12.91-.18,1.4-.18.26,0,.6.03,1.03.09.43.06.86.19,1.27.4.42.21.77.52,1.07.93.3.41.44.97.43,1.67h-2.14c0-.38-.13-.67-.38-.89-.25-.22-.7-.32-1.34-.32-.48,0-.87.09-1.16.27-.29.18-.44.43-.44.75s.14.52.42.65c.28.13.64.19,1.09.19"/>
  <path class="st0" d="M97.95,78.02c-.06-.07-.12-.13-.18-.18-.24-.22-.48-.41-.73-.54-.57-.33-1.23-.51-1.97-.53-.75.03-1.41.2-1.98.53-.24.14-.49.32-.72.54-.23.22-.45.5-.63.84-.19.33-.34.73-.45,1.19-.11.46-.17.99-.17,1.6v4.46h2.14v-4.46c0-.26.01-.52.04-.79.03-.27.1-.52.22-.74.12-.22.29-.41.53-.55.24-.15.58-.22,1.01-.22s.77.08,1.01.22c.24.15.42.33.53.55.12.23.19.47.22.74.03.25.04.49.05.73v4.52h2.14v-4.52c0-.24.02-.48.04-.73.03-.27.1-.52.22-.74.12-.22.3-.41.54-.55.24-.15.58-.22,1.01-.22s.77.08,1.01.22c.24.15.42.33.53.55.12.23.19.47.22.74.03.27.04.53.04.79v4.46h2.14v-4.46c0-.61-.06-1.15-.17-1.6-.12-.46-.27-.86-.45-1.19-.18-.34-.39-.61-.63-.84-.24-.22-.48-.41-.73-.54-.57-.33-1.23-.51-1.97-.53-.75.03-1.41.2-1.98.53-.25.14-.49.32-.72.54-.06.05-.11.11-.16.16"/>
  <path class="st0" d="M121.12,80.32c.02.18.04.36.06.55.02.18.03.39.03.6v.32h-6.14c.02.2.05.4.09.61.03.2.09.41.18.61.13.3.33.58.6.81.27.24.64.35,1.12.35s.85-.12,1.12-.35c.27-.23.47-.5.6-.81h2.28c-.1.41-.23.77-.4,1.07-.17.31-.36.57-.56.8-.21.22-.42.41-.66.55-.23.15-.46.27-.68.36-.54.21-1.11.32-1.7.32-.78,0-1.48-.17-2.09-.49-.26-.14-.51-.32-.76-.54-.25-.22-.47-.49-.66-.82-.2-.33-.35-.72-.47-1.18-.12-.46-.18-.99-.18-1.6s.06-1.15.18-1.6c.12-.46.27-.86.47-1.19.19-.33.41-.61.66-.84.25-.22.51-.4.76-.54.61-.33,1.31-.51,2.09-.53.64.03,1.25.16,1.81.41.23.11.47.24.71.41.24.17.46.38.67.63.2.25.39.55.54.9.16.35.27.75.34,1.21M118.91,80.32c-.06-.19-.13-.37-.22-.56-.09-.18-.21-.36-.36-.51-.15-.15-.34-.27-.55-.36-.21-.09-.45-.13-.74-.13s-.53.05-.74.13c-.21.09-.39.21-.54.36-.15.15-.27.33-.37.51-.09.19-.16.38-.21.56h3.72Z"/>
  <path class="st0" d="M131.51,79.09v3.93c.04.14.1.27.19.39.08.1.2.18.34.26.15.08.34.12.57.12h1.34v2.13h-2.14c-.46-.05-.87-.18-1.23-.39-.3-.18-.58-.44-.83-.79-.25-.35-.38-.82-.38-1.43v-8.72h2.14v2.4h2.02v2.09h-2.02Z"/>
  <path class="st0" d="M142.01,75c0-.26,0-.45,0-.58,0-.13.04-.22.11-.28.06-.06.17-.09.32-.1.15,0,.36,0,.64,0s.49,0,.64,0c.15,0,.25.04.32.1.06.06.1.15.1.28,0,.13,0,.32,0,.58s0,.45,0,.58c0,.13-.04.22-.1.28-.07.06-.17.09-.32.1-.15,0-.36,0-.64,0s-.49,0-.64,0c-.14,0-.25-.04-.32-.1-.07-.06-.1-.15-.11-.28,0-.13,0-.32,0-.58M144.15,85.93h-2.14v-8.93h2.14v8.93Z"/>
  <path class="st0" d="M160.49,80.34h-2.18c-.06-.19-.13-.37-.22-.55-.09-.18-.2-.34-.35-.49-.14-.14-.32-.25-.53-.34-.21-.08-.46-.12-.76-.12-.43,0-.78.09-1.04.26-.26.18-.46.4-.61.66-.14.26-.23.55-.28.85-.05.31-.07.59-.07.85s.02.54.07.84c.05.31.14.59.28.86.14.26.34.48.61.66.26.18.61.26,1.04.26.57,0,1-.15,1.29-.46.29-.31.48-.66.59-1.05h2.16c-.07.47-.18.88-.34,1.23-.16.34-.34.64-.54.9-.2.25-.42.46-.65.62-.23.17-.47.3-.7.41-.55.25-1.15.37-1.81.37-.78,0-1.48-.17-2.09-.49-.26-.14-.51-.32-.76-.54-.25-.22-.48-.49-.67-.82-.19-.33-.35-.72-.47-1.18-.12-.46-.18-.99-.18-1.6s.06-1.15.18-1.6c.12-.46.27-.86.47-1.19.2-.34.42-.61.67-.84.24-.22.5-.41.77-.54.61-.33,1.3-.51,2.09-.53.64.03,1.24.16,1.79.41.23.11.47.24.7.41.23.17.45.39.65.64.2.26.38.56.54.91.16.35.27.75.34,1.21"/>
  <path class="st0" d="M172.44,80.52c.16,0,.39,0,.67.01.29,0,.6.03.92.07.33.04.66.11.99.21.33.1.64.24.9.43.27.19.49.43.66.72.17.29.25.66.25,1.09,0,.68-.15,1.23-.45,1.63-.3.4-.66.72-1.1.93-.43.21-.9.35-1.39.41-.5.06-.94.09-1.32.09-.07,0-.22,0-.46-.01-.23,0-.51-.04-.82-.1-.31-.06-.64-.15-.98-.28-.35-.13-.66-.31-.95-.55-.29-.24-.52-.56-.71-.94-.19-.38-.28-.85-.28-1.4h2.14c0,.11.02.23.05.38.03.15.12.29.24.43.13.14.32.26.58.36.25.1.61.15,1.05.17.55.01.97-.01,1.27-.07.3-.06.52-.14.66-.24.14-.1.23-.2.25-.31.03-.11.04-.2.04-.3,0-.1-.02-.21-.05-.32-.04-.11-.12-.2-.27-.29-.14-.09-.37-.16-.68-.22-.31-.06-.74-.09-1.29-.11-.42-.01-.84-.07-1.26-.18-.42-.11-.8-.27-1.14-.49-.34-.22-.62-.49-.82-.82-.21-.33-.32-.72-.32-1.16,0-.49.1-.92.32-1.3.21-.37.49-.67.83-.91.35-.24.74-.41,1.19-.53.45-.12.91-.18,1.41-.18.26,0,.6.03,1.04.09.43.06.86.19,1.27.4.42.21.77.52,1.07.93.3.41.44.97.43,1.67h-2.14c0-.38-.13-.67-.38-.89-.25-.22-.7-.32-1.34-.32-.48,0-.87.09-1.16.27-.29.18-.44.43-.44.75s.14.52.42.65c.28.13.64.19,1.09.19"/>
  <path class="st1" d="M38.08,81.65c0,1-.81,1.82-1.81,1.82s-1.81-.81-1.81-1.82.81-1.81,1.81-1.81,1.81.81,1.81,1.81"/>
  <path class="st1" d="M184.43,81.65c0,1-.81,1.81-1.81,1.81s-1.81-.81-1.81-1.81.81-1.82,1.81-1.82,1.81.81,1.81,1.82"/>
</svg>